<svg width="20" height="24" viewBox="0 0 20 24" fill="none" xmlns="http://www.w3.org/2000/svg">
<path d="M16.7034 12.7262C16.7379 16.3512 19.9643 17.5575 20 17.5729C19.9727 17.658 19.4845 19.2921 18.3002 20.9799C17.2764 22.4392 16.2139 23.8931 14.5401 23.9232C12.8955 23.9527 12.3666 22.972 10.4863 22.972C8.60655 22.972 8.01898 23.8931 6.46212 23.9527C4.84649 24.0123 3.6162 22.3747 2.58394 20.9208C0.474632 17.9469 -1.13731 12.5171 1.02712 8.85185C2.10237 7.03169 4.02391 5.87909 6.10958 5.84953C7.69609 5.82002 9.19356 6.89045 10.1634 6.89045C11.1327 6.89045 12.9524 5.60316 14.8654 5.79222C15.6663 5.82472 17.9143 6.10771 19.3579 8.16833C19.2415 8.23865 16.6755 9.6955 16.7034 12.7262V12.7262ZM13.6124 3.82466C14.4702 2.8121 15.0475 1.40252 14.89 0C13.6536 0.048461 12.1586 0.803489 11.2717 1.81549C10.477 2.71167 9.78092 4.14606 9.96872 5.52082C11.3468 5.6248 12.7546 4.83787 13.6124 3.82466" fill="#222222"/>
</svg>
