<svg width="25" height="24" viewBox="0 0 25 24" fill="none" xmlns="http://www.w3.org/2000/svg">
<path d="M20.9167 0.145834V2.1875H25V0.145834H20.9167ZM10.7083 3.20833V5.25H14.7917V3.20833H10.7083ZM20.9167 3.20833V5.25H25V3.20833H20.9167ZM10.7083 6.27083V8.3125H14.7917V6.27083H10.7083ZM20.9167 6.27083V8.3125H25V6.27083H20.9167ZM10.7083 9.33333V11.375H14.7917V9.33333H10.7083ZM20.9167 9.33333V11.375H25V9.33333H20.9167ZM0.5 12.3958V14.4375H4.58333V12.3958H0.5ZM10.7083 12.3958V14.4375H14.7917V12.3958H10.7083ZM15.8125 12.3958V14.4375H19.8958V12.3958H15.8125ZM20.9167 12.3958V14.4375H25V12.3958H20.9167ZM0.5 15.4583V17.5H4.58333V15.4583H0.5ZM5.60417 15.4583V17.5H9.6875V15.4583H5.60417ZM10.7083 15.4583V17.5H14.7917V15.4583H10.7083ZM15.8125 15.4583V17.5H19.8958V15.4583H15.8125ZM20.9167 15.4583V17.5H25V15.4583H20.9167ZM0.5 18.5208V20.5625H4.58333V18.5208H0.5ZM5.60417 18.5208V20.5625H9.6875V18.5208H5.60417ZM10.7083 18.5208V20.5625H14.7917V18.5208H10.7083ZM15.8125 18.5208V20.5625H19.8958V18.5208H15.8125ZM20.9167 18.5208V20.5625H25V18.5208H20.9167ZM0.5 21.5833V23.625H4.58333V21.5833H0.5ZM5.60417 21.5833V23.625H9.6875V21.5833H5.60417ZM10.7083 21.5833V23.625H14.7917V21.5833H10.7083ZM15.8125 21.5833V23.625H19.8958V21.5833H15.8125ZM20.9167 21.5833V23.625H25V21.5833H20.9167Z" fill="#222222"/>
</svg>
