<svg width="27" height="28" viewBox="0 0 27 28" fill="none" xmlns="http://www.w3.org/2000/svg">
<path d="M13.5 0.4375C6.04778 0.4375 0 6.51328 0 14C0 21.4867 6.04778 27.5625 13.5 27.5625C20.9522 27.5625 27 21.4867 27 14C27 6.51328 20.9522 0.4375 13.5 0.4375ZM18.9817 20.393C18.753 20.393 18.6115 20.3219 18.3992 20.1961C15.0024 18.1398 11.0504 18.0523 7.14738 18.8562C6.93508 18.9109 6.65746 18.9984 6.4996 18.9984C5.97157 18.9984 5.63952 18.5773 5.63952 18.1344C5.63952 17.5711 5.97157 17.3031 6.37984 17.2156C10.8381 16.2258 15.3944 16.3133 19.281 18.6484C19.6131 18.8617 19.8091 19.0531 19.8091 19.5508C19.8091 20.0484 19.4226 20.393 18.9817 20.393V20.393ZM20.446 16.8055C20.1629 16.8055 19.9724 16.6797 19.7764 16.5758C16.3742 14.5523 11.3008 13.7375 6.7881 14.968C6.52681 15.0391 6.38528 15.1102 6.14032 15.1102C5.55786 15.1102 5.08427 14.6344 5.08427 14.0492C5.08427 13.4641 5.36734 13.0758 5.92802 12.9172C7.44133 12.4906 8.9873 12.1734 11.2518 12.1734C14.7847 12.1734 18.1978 13.0539 20.8869 14.6617C21.3278 14.9242 21.502 15.2633 21.502 15.7391C21.4966 16.3297 21.0393 16.8055 20.446 16.8055V16.8055ZM22.1335 12.6383C21.8504 12.6383 21.6762 12.5672 21.4313 12.425C17.5554 10.1008 10.6258 9.54297 6.14032 10.8008C5.94436 10.8555 5.6994 10.943 5.4381 10.943C4.71956 10.943 4.16976 10.3797 4.16976 9.65234C4.16976 8.90859 4.62702 8.4875 5.11694 8.34531C7.03306 7.78203 9.17782 7.51406 11.5131 7.51406C15.4869 7.51406 19.6512 8.34531 22.6942 10.1281C23.1187 10.3742 23.3964 10.7133 23.3964 11.3641C23.3964 12.1078 22.7976 12.6383 22.1335 12.6383V12.6383Z" fill="black"/>
</svg>
