<svg width="32" height="32" viewBox="0 0 32 32" fill="none" xmlns="http://www.w3.org/2000/svg">
<path d="M31.355 4.27064C30.5699 2.40868 28.9943 0.994871 27.0588 0.415652C25.796 0.0999107 24.4952 -0.0371152 23.1944 0.00857776H8.80571C7.50487 -0.0371148 6.20406 0.0999111 4.94127 0.415652C3.00577 0.994873 1.43015 2.40868 0.645071 4.27064C0.157943 5.73008 -0.0564363 7.26674 0.0126504 8.80382V23.1961C-0.0564442 24.7332 0.157935 26.2699 0.645071 27.7294C1.43016 29.5913 3.00577 31.0051 4.94127 31.5843C6.20406 31.9001 7.50487 32.0371 8.80571 31.9914H23.1943C24.4951 32.0371 25.7959 31.9001 27.0587 31.5843C28.9942 31.0051 30.5698 29.5913 31.3549 27.7294C31.8421 26.2699 32.0564 24.7332 31.9873 23.1961V8.80382C32.0565 7.26675 31.8421 5.73008 31.355 4.27064Z" fill="white"/>
<path d="M15.7167 28.3331C21.1782 28.3331 25.6056 23.9111 25.6056 18.4563C25.6056 13.0015 21.1782 8.57957 15.7167 8.57957C10.2552 8.57957 5.82785 13.0015 5.82785 18.4563C5.82785 23.9111 10.2552 28.3331 15.7167 28.3331Z" fill="#FFCC00"/>
<path d="M20.6684 8.38882L20.6685 17.6286L20.6466 17.6359C20.6466 17.6398 20.6467 17.6438 20.6467 17.6477C20.6467 18.5515 20.5811 19.3945 20.4585 19.8247C19.8692 21.8938 17.9629 23.3947 15.7022 23.3947C12.9715 23.3947 10.7868 21.1909 10.7868 18.4636C10.7868 15.7362 12.9715 13.5324 15.7022 13.5324C16.9889 13.5324 18.1608 14.0233 19.0404 14.8277C19.3277 15.0906 19.5839 15.3869 19.8027 15.7105C19.742 15.4208 19.6822 15.0565 19.6822 14.745V7.58417V3.63636L26.1179 5.60592V10.0664L20.6684 8.38882Z" fill="#FF3333"/>
</svg>
