<svg width="32" height="32" viewBox="0 0 32 32" fill="none" xmlns="http://www.w3.org/2000/svg">
<path d="M15.9186 0.415168C11.7991 0.457765 7.86445 2.13142 4.9766 5.06947C2.08874 8.00753 0.483141 11.9704 0.51154 16.09C0.539956 20.2096 2.20002 24.1499 5.12807 27.0479C8.05612 29.9458 12.0134 31.5651 16.133 31.5509C20.2527 31.5368 24.1988 29.8903 27.1068 26.9722C30.0149 24.0542 31.6478 20.1025 31.6478 15.9828L31.646 15.7683C31.5893 11.6491 29.9022 7.72021 26.9543 4.84245C24.0064 1.96469 20.038 0.372681 15.9186 0.415168V0.415168ZM15.969 7.96777C18.1042 7.94589 20.1611 8.77119 21.6891 10.2629C23.2171 11.7546 24.0916 13.791 24.121 15.9262L24.1225 16.0374C24.1225 18.173 23.2761 20.2215 21.7686 21.7341C20.2611 23.2468 18.2155 24.1003 16.08 24.1076C13.9445 24.1149 11.8931 23.2755 10.3753 21.7733C8.85748 20.2711 7.99697 18.2285 7.98226 16.093C7.96757 13.9576 8.79987 11.9034 10.2968 10.3804C11.7938 8.85741 13.8334 7.98985 15.9688 7.96777H15.969ZM16.1924 8.65087C14.2418 8.64413 12.3681 9.41078 10.9817 10.7829C9.59536 12.155 8.80935 14.0206 8.7959 15.9711C8.78246 17.9217 9.54269 19.798 10.91 21.1891C12.2774 22.5802 14.1404 23.3726 16.0908 23.3927C18.0413 23.4128 19.9202 22.6591 21.316 21.2966C22.7117 19.9341 23.5106 18.0739 23.5375 16.1235L23.5387 16.022C23.5387 14.0715 22.7656 12.2004 21.3887 10.8188C20.0118 9.43713 18.1434 8.65757 16.1929 8.65087H16.1924ZM13.2547 12.1061L20.2783 16.0563L13.1973 19.9111L13.2547 12.1061Z" fill="#222222"/>
</svg>
